<mxfile host="app.diagrams.net" agent="Mozilla/5.0 (Windows NT 10.0; Win64; x64) AppleWebKit/537.36 (KHTML, like Gecko) Chrome/128.0.0.0 Safari/537.36" version="24.7.13">
  <diagram name="Page-1" id="arSkpOalii4-__xPjCYc">
    <mxGraphModel dx="875" dy="1604" grid="1" gridSize="10" guides="1" tooltips="1" connect="1" arrows="1" fold="1" page="1" pageScale="1" pageWidth="827" pageHeight="1169" math="0" shadow="0">
      <root>
        <mxCell id="0" />
        <mxCell id="1" parent="0" />
        <mxCell id="gZHeUEbKTbysgXTS1f_U-3" value="" style="rounded=0;whiteSpace=wrap;html=1;rotation=-90;" vertex="1" parent="1">
          <mxGeometry x="136.57" y="-21.56" width="653.75" height="376.87" as="geometry" />
        </mxCell>
        <mxCell id="gZHeUEbKTbysgXTS1f_U-5" value="Mister Ed System" style="rounded=0;whiteSpace=wrap;html=1;" vertex="1" parent="1">
          <mxGeometry x="280" y="-180" width="110" height="20" as="geometry" />
        </mxCell>
        <mxCell id="gZHeUEbKTbysgXTS1f_U-19" value="" style="rounded=0;whiteSpace=wrap;html=1;rotation=-90;" vertex="1" parent="1">
          <mxGeometry x="-22.5" y="97.5" width="255" height="85" as="geometry" />
        </mxCell>
        <mxCell id="gZHeUEbKTbysgXTS1f_U-20" value="patient" style="shape=umlActor;verticalLabelPosition=bottom;verticalAlign=top;html=1;outlineConnect=0;" vertex="1" parent="1">
          <mxGeometry x="90" y="40" width="30" height="60" as="geometry" />
        </mxCell>
        <mxCell id="gZHeUEbKTbysgXTS1f_U-23" value="&lt;div&gt;&lt;span style=&quot;background-color: initial;&quot;&gt;Primary Actor&lt;/span&gt;&lt;br&gt;&lt;/div&gt;" style="rounded=0;whiteSpace=wrap;html=1;" vertex="1" parent="1">
          <mxGeometry x="65" y="270" width="80" height="20" as="geometry" />
        </mxCell>
        <mxCell id="gZHeUEbKTbysgXTS1f_U-28" value="" style="rounded=0;whiteSpace=wrap;html=1;rotation=-90;" vertex="1" parent="1">
          <mxGeometry x="622.5" y="-20" width="190" height="105" as="geometry" />
        </mxCell>
        <mxCell id="gZHeUEbKTbysgXTS1f_U-29" value="System" style="shape=umlActor;verticalLabelPosition=bottom;verticalAlign=top;html=1;outlineConnect=0;" vertex="1" parent="1">
          <mxGeometry x="702.5" y="2.5" width="30" height="60" as="geometry" />
        </mxCell>
        <mxCell id="gZHeUEbKTbysgXTS1f_U-30" value="Secondary Actor" style="rounded=0;whiteSpace=wrap;html=1;" vertex="1" parent="1">
          <mxGeometry x="667.5" y="130" width="100" height="20" as="geometry" />
        </mxCell>
        <mxCell id="gZHeUEbKTbysgXTS1f_U-48" value="Nurse" style="shape=umlActor;verticalLabelPosition=bottom;verticalAlign=top;html=1;outlineConnect=0;" vertex="1" parent="1">
          <mxGeometry x="90" y="150" width="30" height="60" as="geometry" />
        </mxCell>
        <mxCell id="gZHeUEbKTbysgXTS1f_U-50" value="Register" style="ellipse;whiteSpace=wrap;html=1;" vertex="1" parent="1">
          <mxGeometry x="550" y="-130" width="90" height="50" as="geometry" />
        </mxCell>
        <mxCell id="gZHeUEbKTbysgXTS1f_U-51" value="" style="endArrow=classic;html=1;rounded=0;entryX=0;entryY=0.5;entryDx=0;entryDy=0;exitX=0.5;exitY=0.5;exitDx=0;exitDy=0;exitPerimeter=0;" edge="1" parent="1" source="gZHeUEbKTbysgXTS1f_U-20" target="gZHeUEbKTbysgXTS1f_U-53">
          <mxGeometry width="50" height="50" relative="1" as="geometry">
            <mxPoint x="110" y="85" as="sourcePoint" />
            <mxPoint x="160" y="35" as="targetPoint" />
          </mxGeometry>
        </mxCell>
        <mxCell id="gZHeUEbKTbysgXTS1f_U-53" value="Login" style="ellipse;whiteSpace=wrap;html=1;" vertex="1" parent="1">
          <mxGeometry x="306" y="-150" width="107" height="50" as="geometry" />
        </mxCell>
        <mxCell id="gZHeUEbKTbysgXTS1f_U-54" value="&amp;lt;&amp;lt;extend&amp;gt;&amp;gt;" style="endArrow=none;dashed=1;html=1;rounded=0;exitX=0;exitY=0.5;exitDx=0;exitDy=0;entryX=1;entryY=0.5;entryDx=0;entryDy=0;" edge="1" parent="1" source="gZHeUEbKTbysgXTS1f_U-50" target="gZHeUEbKTbysgXTS1f_U-53">
          <mxGeometry width="50" height="50" relative="1" as="geometry">
            <mxPoint x="490" y="60" as="sourcePoint" />
            <mxPoint x="540" y="10" as="targetPoint" />
          </mxGeometry>
        </mxCell>
        <mxCell id="gZHeUEbKTbysgXTS1f_U-55" value="" style="endArrow=classic;html=1;rounded=0;entryX=0.966;entryY=0.695;entryDx=0;entryDy=0;entryPerimeter=0;exitX=0.5;exitY=0.5;exitDx=0;exitDy=0;exitPerimeter=0;" edge="1" parent="1" source="gZHeUEbKTbysgXTS1f_U-29" target="gZHeUEbKTbysgXTS1f_U-53">
          <mxGeometry width="50" height="50" relative="1" as="geometry">
            <mxPoint x="490" y="60" as="sourcePoint" />
            <mxPoint x="540" y="10" as="targetPoint" />
          </mxGeometry>
        </mxCell>
        <mxCell id="gZHeUEbKTbysgXTS1f_U-56" value="Virtual Triage Assessment" style="ellipse;whiteSpace=wrap;html=1;" vertex="1" parent="1">
          <mxGeometry x="299.5" y="-86.87" width="120" height="46.87" as="geometry" />
        </mxCell>
        <mxCell id="gZHeUEbKTbysgXTS1f_U-57" value="" style="endArrow=classic;html=1;rounded=0;exitX=0.5;exitY=0.5;exitDx=0;exitDy=0;exitPerimeter=0;entryX=0;entryY=0.5;entryDx=0;entryDy=0;" edge="1" parent="1" source="gZHeUEbKTbysgXTS1f_U-20" target="gZHeUEbKTbysgXTS1f_U-56">
          <mxGeometry width="50" height="50" relative="1" as="geometry">
            <mxPoint x="490" y="60" as="sourcePoint" />
            <mxPoint x="540" y="10" as="targetPoint" />
          </mxGeometry>
        </mxCell>
        <mxCell id="gZHeUEbKTbysgXTS1f_U-58" value="" style="endArrow=classic;html=1;rounded=0;entryX=1;entryY=0.5;entryDx=0;entryDy=0;exitX=0.5;exitY=0.5;exitDx=0;exitDy=0;exitPerimeter=0;" edge="1" parent="1" source="gZHeUEbKTbysgXTS1f_U-29" target="gZHeUEbKTbysgXTS1f_U-56">
          <mxGeometry width="50" height="50" relative="1" as="geometry">
            <mxPoint x="490" y="60" as="sourcePoint" />
            <mxPoint x="540" y="10" as="targetPoint" />
          </mxGeometry>
        </mxCell>
        <mxCell id="gZHeUEbKTbysgXTS1f_U-62" value="Assessment Review and&amp;nbsp;&lt;div&gt;Next Steps&lt;/div&gt;" style="ellipse;whiteSpace=wrap;html=1;" vertex="1" parent="1">
          <mxGeometry x="290" y="-7.5" width="134" height="70" as="geometry" />
        </mxCell>
        <mxCell id="gZHeUEbKTbysgXTS1f_U-63" value="" style="endArrow=classic;html=1;rounded=0;exitX=0.5;exitY=0.5;exitDx=0;exitDy=0;exitPerimeter=0;entryX=0;entryY=0.5;entryDx=0;entryDy=0;" edge="1" parent="1" source="gZHeUEbKTbysgXTS1f_U-48" target="gZHeUEbKTbysgXTS1f_U-62">
          <mxGeometry width="50" height="50" relative="1" as="geometry">
            <mxPoint x="490" y="120" as="sourcePoint" />
            <mxPoint x="540" y="70" as="targetPoint" />
          </mxGeometry>
        </mxCell>
        <mxCell id="gZHeUEbKTbysgXTS1f_U-64" value="" style="endArrow=classic;html=1;rounded=0;entryX=1;entryY=0.5;entryDx=0;entryDy=0;" edge="1" parent="1" target="gZHeUEbKTbysgXTS1f_U-62">
          <mxGeometry width="50" height="50" relative="1" as="geometry">
            <mxPoint x="718" y="33" as="sourcePoint" />
            <mxPoint x="540" y="70" as="targetPoint" />
          </mxGeometry>
        </mxCell>
        <mxCell id="gZHeUEbKTbysgXTS1f_U-65" value="" style="endArrow=classic;html=1;rounded=0;exitX=0.5;exitY=0.5;exitDx=0;exitDy=0;exitPerimeter=0;" edge="1" parent="1" source="gZHeUEbKTbysgXTS1f_U-20">
          <mxGeometry width="50" height="50" relative="1" as="geometry">
            <mxPoint x="490" y="120" as="sourcePoint" />
            <mxPoint x="300" y="10" as="targetPoint" />
          </mxGeometry>
        </mxCell>
        <mxCell id="gZHeUEbKTbysgXTS1f_U-66" value="&amp;lt;&amp;lt;extend&amp;gt;&amp;gt;" style="endArrow=none;dashed=1;html=1;rounded=0;exitX=0.956;exitY=0.756;exitDx=0;exitDy=0;exitPerimeter=0;entryX=-0.009;entryY=0.369;entryDx=0;entryDy=0;entryPerimeter=0;" edge="1" parent="1" source="gZHeUEbKTbysgXTS1f_U-62" target="gZHeUEbKTbysgXTS1f_U-67">
          <mxGeometry width="50" height="50" relative="1" as="geometry">
            <mxPoint x="490" y="120" as="sourcePoint" />
            <mxPoint x="470" y="40" as="targetPoint" />
          </mxGeometry>
        </mxCell>
        <mxCell id="gZHeUEbKTbysgXTS1f_U-67" value="ED Required" style="ellipse;whiteSpace=wrap;html=1;" vertex="1" parent="1">
          <mxGeometry x="443" y="80" width="107" height="50" as="geometry" />
        </mxCell>
        <mxCell id="gZHeUEbKTbysgXTS1f_U-69" value="Follow Other course of Action" style="ellipse;whiteSpace=wrap;html=1;" vertex="1" parent="1">
          <mxGeometry x="290" y="220" width="107" height="50" as="geometry" />
        </mxCell>
        <mxCell id="gZHeUEbKTbysgXTS1f_U-70" value="&amp;lt;&amp;lt;extend&amp;gt;&amp;gt;" style="endArrow=none;dashed=1;html=1;rounded=0;entryX=0.5;entryY=1;entryDx=0;entryDy=0;exitX=0.5;exitY=0;exitDx=0;exitDy=0;" edge="1" parent="1" source="gZHeUEbKTbysgXTS1f_U-69" target="gZHeUEbKTbysgXTS1f_U-62">
          <mxGeometry width="50" height="50" relative="1" as="geometry">
            <mxPoint x="490" y="50" as="sourcePoint" />
            <mxPoint x="540" as="targetPoint" />
          </mxGeometry>
        </mxCell>
        <mxCell id="gZHeUEbKTbysgXTS1f_U-71" value="In-person Triage Required" style="ellipse;whiteSpace=wrap;html=1;" vertex="1" parent="1">
          <mxGeometry x="340" y="330" width="100" height="62.5" as="geometry" />
        </mxCell>
        <mxCell id="gZHeUEbKTbysgXTS1f_U-72" value="&amp;lt;&amp;lt;extend&amp;gt;&amp;gt;" style="endArrow=none;dashed=1;html=1;rounded=0;entryX=0.754;entryY=0.952;entryDx=0;entryDy=0;entryPerimeter=0;" edge="1" parent="1" source="gZHeUEbKTbysgXTS1f_U-71" target="gZHeUEbKTbysgXTS1f_U-62">
          <mxGeometry width="50" height="50" relative="1" as="geometry">
            <mxPoint x="460" y="130" as="sourcePoint" />
            <mxPoint x="510" y="80" as="targetPoint" />
          </mxGeometry>
        </mxCell>
        <mxCell id="gZHeUEbKTbysgXTS1f_U-73" value="" style="endArrow=classic;html=1;rounded=0;entryX=0;entryY=0.5;entryDx=0;entryDy=0;" edge="1" parent="1" target="gZHeUEbKTbysgXTS1f_U-67">
          <mxGeometry width="50" height="50" relative="1" as="geometry">
            <mxPoint x="110" y="70" as="sourcePoint" />
            <mxPoint x="510" y="80" as="targetPoint" />
          </mxGeometry>
        </mxCell>
        <mxCell id="gZHeUEbKTbysgXTS1f_U-74" value="" style="endArrow=classic;html=1;rounded=0;exitX=0.5;exitY=0.5;exitDx=0;exitDy=0;exitPerimeter=0;entryX=0;entryY=0.5;entryDx=0;entryDy=0;" edge="1" parent="1" source="gZHeUEbKTbysgXTS1f_U-48" target="gZHeUEbKTbysgXTS1f_U-67">
          <mxGeometry width="50" height="50" relative="1" as="geometry">
            <mxPoint x="460" y="130" as="sourcePoint" />
            <mxPoint x="510" y="80" as="targetPoint" />
          </mxGeometry>
        </mxCell>
        <mxCell id="gZHeUEbKTbysgXTS1f_U-75" value="" style="endArrow=classic;html=1;rounded=0;entryX=0;entryY=0.5;entryDx=0;entryDy=0;exitX=0.5;exitY=0.5;exitDx=0;exitDy=0;exitPerimeter=0;" edge="1" parent="1" source="gZHeUEbKTbysgXTS1f_U-48" target="gZHeUEbKTbysgXTS1f_U-69">
          <mxGeometry width="50" height="50" relative="1" as="geometry">
            <mxPoint x="460" y="130" as="sourcePoint" />
            <mxPoint x="510" y="80" as="targetPoint" />
          </mxGeometry>
        </mxCell>
        <mxCell id="gZHeUEbKTbysgXTS1f_U-76" value="" style="endArrow=classic;html=1;rounded=0;entryX=0;entryY=0;entryDx=0;entryDy=0;exitX=0.5;exitY=0.5;exitDx=0;exitDy=0;exitPerimeter=0;" edge="1" parent="1" source="gZHeUEbKTbysgXTS1f_U-20" target="gZHeUEbKTbysgXTS1f_U-69">
          <mxGeometry width="50" height="50" relative="1" as="geometry">
            <mxPoint x="460" y="130" as="sourcePoint" />
            <mxPoint x="510" y="80" as="targetPoint" />
          </mxGeometry>
        </mxCell>
        <mxCell id="gZHeUEbKTbysgXTS1f_U-77" value="" style="endArrow=classic;html=1;rounded=0;entryX=0;entryY=0.5;entryDx=0;entryDy=0;" edge="1" parent="1" target="gZHeUEbKTbysgXTS1f_U-71">
          <mxGeometry width="50" height="50" relative="1" as="geometry">
            <mxPoint x="110" y="70" as="sourcePoint" />
            <mxPoint x="450" y="90" as="targetPoint" />
          </mxGeometry>
        </mxCell>
        <mxCell id="gZHeUEbKTbysgXTS1f_U-78" value="" style="endArrow=classic;html=1;rounded=0;entryX=0;entryY=0.5;entryDx=0;entryDy=0;" edge="1" parent="1" target="gZHeUEbKTbysgXTS1f_U-71">
          <mxGeometry width="50" height="50" relative="1" as="geometry">
            <mxPoint x="110" y="180" as="sourcePoint" />
            <mxPoint x="340" y="230" as="targetPoint" />
          </mxGeometry>
        </mxCell>
        <mxCell id="gZHeUEbKTbysgXTS1f_U-79" value="&amp;lt;&amp;lt;include&amp;gt;&amp;gt;" style="endArrow=none;dashed=1;html=1;rounded=0;exitX=0.5;exitY=1;exitDx=0;exitDy=0;entryX=0.5;entryY=0;entryDx=0;entryDy=0;" edge="1" parent="1" source="gZHeUEbKTbysgXTS1f_U-67" target="gZHeUEbKTbysgXTS1f_U-80">
          <mxGeometry width="50" height="50" relative="1" as="geometry">
            <mxPoint x="400" y="180" as="sourcePoint" />
            <mxPoint x="450" y="130" as="targetPoint" />
          </mxGeometry>
        </mxCell>
        <mxCell id="gZHeUEbKTbysgXTS1f_U-80" value="Check ED load + give options to user" style="ellipse;whiteSpace=wrap;html=1;" vertex="1" parent="1">
          <mxGeometry x="480" y="240" width="130" height="63.12" as="geometry" />
        </mxCell>
        <mxCell id="gZHeUEbKTbysgXTS1f_U-81" value="" style="endArrow=classic;html=1;rounded=0;exitX=0.5;exitY=0.5;exitDx=0;exitDy=0;exitPerimeter=0;entryX=1;entryY=0;entryDx=0;entryDy=0;" edge="1" parent="1" source="gZHeUEbKTbysgXTS1f_U-29" target="gZHeUEbKTbysgXTS1f_U-80">
          <mxGeometry width="50" height="50" relative="1" as="geometry">
            <mxPoint x="400" y="180" as="sourcePoint" />
            <mxPoint x="450" y="130" as="targetPoint" />
          </mxGeometry>
        </mxCell>
        <mxCell id="gZHeUEbKTbysgXTS1f_U-82" value="&amp;lt;&amp;lt;include&amp;gt;&amp;gt;" style="endArrow=none;dashed=1;html=1;rounded=0;exitX=0.321;exitY=-0.014;exitDx=0;exitDy=0;entryX=0.286;entryY=0.023;entryDx=0;entryDy=0;exitPerimeter=0;entryPerimeter=0;" edge="1" parent="1" target="gZHeUEbKTbysgXTS1f_U-83" source="gZHeUEbKTbysgXTS1f_U-80">
          <mxGeometry x="0.1222" y="5" width="50" height="50" relative="1" as="geometry">
            <mxPoint x="471" y="180" as="sourcePoint" />
            <mxPoint x="397" y="210" as="targetPoint" />
            <mxPoint as="offset" />
          </mxGeometry>
        </mxCell>
        <mxCell id="gZHeUEbKTbysgXTS1f_U-83" value="Select ED" style="ellipse;whiteSpace=wrap;html=1;" vertex="1" parent="1">
          <mxGeometry x="397" y="150" width="70" height="34.68" as="geometry" />
        </mxCell>
        <mxCell id="gZHeUEbKTbysgXTS1f_U-84" value="" style="endArrow=classic;html=1;rounded=0;entryX=0.008;entryY=0.412;entryDx=0;entryDy=0;entryPerimeter=0;exitX=0.5;exitY=0.5;exitDx=0;exitDy=0;exitPerimeter=0;" edge="1" parent="1" source="gZHeUEbKTbysgXTS1f_U-20" target="gZHeUEbKTbysgXTS1f_U-83">
          <mxGeometry width="50" height="50" relative="1" as="geometry">
            <mxPoint x="400" y="200" as="sourcePoint" />
            <mxPoint x="450" y="150" as="targetPoint" />
          </mxGeometry>
        </mxCell>
        <mxCell id="gZHeUEbKTbysgXTS1f_U-87" value="" style="endArrow=classic;html=1;rounded=0;entryX=1;entryY=0.5;entryDx=0;entryDy=0;exitX=0.5;exitY=0.5;exitDx=0;exitDy=0;exitPerimeter=0;" edge="1" parent="1" source="gZHeUEbKTbysgXTS1f_U-29" target="gZHeUEbKTbysgXTS1f_U-83">
          <mxGeometry width="50" height="50" relative="1" as="geometry">
            <mxPoint x="400" y="190" as="sourcePoint" />
            <mxPoint x="450" y="140" as="targetPoint" />
          </mxGeometry>
        </mxCell>
        <mxCell id="gZHeUEbKTbysgXTS1f_U-88" value="Send Notification" style="ellipse;whiteSpace=wrap;html=1;" vertex="1" parent="1">
          <mxGeometry x="367" y="-37.5" width="113" height="30" as="geometry" />
        </mxCell>
        <mxCell id="gZHeUEbKTbysgXTS1f_U-89" value="" style="endArrow=classic;html=1;rounded=0;exitX=0.5;exitY=0.5;exitDx=0;exitDy=0;exitPerimeter=0;entryX=0;entryY=0.5;entryDx=0;entryDy=0;" edge="1" parent="1" source="gZHeUEbKTbysgXTS1f_U-20" target="gZHeUEbKTbysgXTS1f_U-88">
          <mxGeometry width="50" height="50" relative="1" as="geometry">
            <mxPoint x="400" as="sourcePoint" />
            <mxPoint x="450" y="-50" as="targetPoint" />
          </mxGeometry>
        </mxCell>
        <mxCell id="gZHeUEbKTbysgXTS1f_U-90" value="" style="endArrow=classic;html=1;rounded=0;entryX=1;entryY=0.5;entryDx=0;entryDy=0;" edge="1" parent="1" target="gZHeUEbKTbysgXTS1f_U-88">
          <mxGeometry width="50" height="50" relative="1" as="geometry">
            <mxPoint x="710" y="30" as="sourcePoint" />
            <mxPoint x="450" y="-50" as="targetPoint" />
          </mxGeometry>
        </mxCell>
        <mxCell id="gZHeUEbKTbysgXTS1f_U-91" value="" style="endArrow=classic;html=1;rounded=0;" edge="1" parent="1" target="gZHeUEbKTbysgXTS1f_U-50">
          <mxGeometry width="50" height="50" relative="1" as="geometry">
            <mxPoint x="720" y="40" as="sourcePoint" />
            <mxPoint x="450" y="-50" as="targetPoint" />
          </mxGeometry>
        </mxCell>
        <mxCell id="gZHeUEbKTbysgXTS1f_U-92" value="ED Queue (update/add/remove)" style="ellipse;whiteSpace=wrap;html=1;" vertex="1" parent="1">
          <mxGeometry x="500" y="35" width="135" height="50" as="geometry" />
        </mxCell>
        <mxCell id="gZHeUEbKTbysgXTS1f_U-93" value="" style="endArrow=classic;html=1;rounded=0;entryX=1;entryY=0.5;entryDx=0;entryDy=0;" edge="1" parent="1" target="gZHeUEbKTbysgXTS1f_U-92">
          <mxGeometry width="50" height="50" relative="1" as="geometry">
            <mxPoint x="720" y="30" as="sourcePoint" />
            <mxPoint x="450" y="100" as="targetPoint" />
          </mxGeometry>
        </mxCell>
        <mxCell id="gZHeUEbKTbysgXTS1f_U-94" value="&amp;lt;&amp;lt;extend&amp;gt;&amp;gt;" style="endArrow=none;dashed=1;html=1;rounded=0;entryX=0.556;entryY=1.007;entryDx=0;entryDy=0;entryPerimeter=0;exitX=0.649;exitY=0.032;exitDx=0;exitDy=0;exitPerimeter=0;" edge="1" parent="1" source="gZHeUEbKTbysgXTS1f_U-80" target="gZHeUEbKTbysgXTS1f_U-92">
          <mxGeometry width="50" height="50" relative="1" as="geometry">
            <mxPoint x="400" y="150" as="sourcePoint" />
            <mxPoint x="450" y="100" as="targetPoint" />
            <Array as="points">
              <mxPoint x="580" y="180" />
            </Array>
          </mxGeometry>
        </mxCell>
        <mxCell id="gZHeUEbKTbysgXTS1f_U-95" value="Log user symptoms" style="ellipse;whiteSpace=wrap;html=1;" vertex="1" parent="1">
          <mxGeometry x="510" y="-77.5" width="77.5" height="40" as="geometry" />
        </mxCell>
        <mxCell id="gZHeUEbKTbysgXTS1f_U-97" value="" style="endArrow=classic;html=1;rounded=0;entryX=1;entryY=0.5;entryDx=0;entryDy=0;" edge="1" parent="1" target="gZHeUEbKTbysgXTS1f_U-95">
          <mxGeometry width="50" height="50" relative="1" as="geometry">
            <mxPoint x="720" y="40" as="sourcePoint" />
            <mxPoint x="450" y="-60" as="targetPoint" />
          </mxGeometry>
        </mxCell>
        <mxCell id="gZHeUEbKTbysgXTS1f_U-98" value="&amp;lt;&amp;lt;Include&amp;gt;&amp;gt;" style="endArrow=none;dashed=1;html=1;rounded=0;entryX=0;entryY=0.5;entryDx=0;entryDy=0;exitX=0.935;exitY=0.275;exitDx=0;exitDy=0;exitPerimeter=0;" edge="1" parent="1" source="gZHeUEbKTbysgXTS1f_U-56" target="gZHeUEbKTbysgXTS1f_U-95">
          <mxGeometry width="50" height="50" relative="1" as="geometry">
            <mxPoint x="400" y="-10" as="sourcePoint" />
            <mxPoint x="450" y="-60" as="targetPoint" />
          </mxGeometry>
        </mxCell>
      </root>
    </mxGraphModel>
  </diagram>
</mxfile>
